<svg xmlns="http://www.w3.org/2000/svg" xmlns:xlink="http://www.w3.org/1999/xlink" width="500" zoomAndPan="magnify" viewBox="0 0 375 220.499993" height="294" preserveAspectRatio="xMidYMid meet" version="1.0"><defs><g/><clipPath id="d41b330f0e"><path d="M 224.128906 69.652344 L 294.097656 69.652344 L 294.097656 139.625 L 224.128906 139.625 Z M 224.128906 69.652344 " clip-rule="nonzero"/></clipPath><clipPath id="3f21957ab6"><path d="M 259.113281 69.652344 C 239.792969 69.652344 224.128906 85.316406 224.128906 104.636719 C 224.128906 123.960938 239.792969 139.625 259.113281 139.625 C 278.433594 139.625 294.097656 123.960938 294.097656 104.636719 C 294.097656 85.316406 278.433594 69.652344 259.113281 69.652344 " clip-rule="nonzero"/></clipPath><clipPath id="5004b57191"><path d="M 338 68 L 349 68 L 349 79 L 338 79 Z M 338 68 " clip-rule="nonzero"/></clipPath><clipPath id="67d3bcd876"><path d="M 342.203125 66.871094 L 350.097656 72.730469 L 344.339844 80.488281 L 336.445312 74.628906 Z M 342.203125 66.871094 " clip-rule="nonzero"/></clipPath><clipPath id="dccc06015d"><path d="M 346.152344 69.800781 C 343.972656 68.183594 340.914062 68.609375 339.324219 70.75 C 337.734375 72.890625 338.210938 75.9375 340.390625 77.558594 C 342.570312 79.175781 345.628906 78.75 347.21875 76.609375 C 348.808594 74.46875 348.328125 71.417969 346.152344 69.800781 " clip-rule="nonzero"/></clipPath></defs><g fill="#282929" fill-opacity="1"><g transform="translate(167.161007, 124.077726)"><g><path d="M 109.90625 -36.199219 C 109.179688 -36.925781 108.167969 -37.359375 107.152344 -37.359375 C 106.140625 -37.359375 105.269531 -37.070312 104.546875 -36.34375 C 83.117188 -15.785156 51.839844 -22.734375 30.84375 -34.460938 C 30.410156 -36.054688 29.683594 -37.503906 28.671875 -38.808594 C 25.917969 -41.992188 21.429688 -43.152344 17.664062 -41.414062 C 16.363281 -40.980469 15.347656 -39.820312 15.203125 -38.371094 C 14.914062 -37.070312 15.492188 -35.621094 16.652344 -34.753906 C 17.8125 -33.882812 19.113281 -32.871094 20.5625 -32 C 23.023438 -30.410156 24.328125 -27.65625 23.890625 -24.761719 C 23.3125 -20.996094 22.15625 -17.375 20.128906 -14.046875 C 19.113281 -12.164062 17.664062 -10.570312 15.929688 -9.121094 C 13.613281 -7.386719 10.570312 -6.949219 7.820312 -8.109375 C 5.066406 -9.121094 3.1875 -11.585938 2.605469 -14.480469 C 2.027344 -18.679688 2.027344 -23.023438 2.460938 -27.367188 C 2.605469 -27.367188 2.75 -27.511719 2.894531 -27.65625 C 15.636719 -38.953125 57.484375 -103.242188 49.667969 -119.75 C 47.785156 -123.515625 43.585938 -125.398438 39.53125 -124.382812 C 24.183594 -121.921875 1.011719 -67.1875 -4.054688 -35.621094 C -7.238281 -16.21875 -4.777344 -4.199219 3.332031 0.289062 L 4.777344 0.722656 C 6.082031 1.011719 7.386719 1.160156 8.6875 1.160156 C 16.21875 0.867188 23.167969 -3.332031 26.644531 -10.136719 C 28.382812 -12.886719 29.683594 -16.074219 30.554688 -19.257812 C 30.84375 -20.707031 32 -22.011719 33.304688 -22.589844 C 34.753906 -23.3125 36.34375 -23.3125 37.648438 -22.734375 C 60.09375 -13.320312 88.761719 -10.714844 109.757812 -30.84375 C 110.484375 -31.566406 110.917969 -32.582031 110.917969 -33.449219 C 110.917969 -34.460938 110.628906 -35.476562 109.90625 -36.199219 Z M 40.6875 -116.855469 C 40.980469 -116.855469 41.414062 -116.855469 41.703125 -116.855469 C 42.570312 -116.855469 42.714844 -116.566406 42.859375 -116.566406 C 44.164062 -113.8125 42.28125 -102.085938 27.511719 -75.585938 C 21.574219 -65.160156 15.058594 -55.167969 7.964844 -45.324219 C 7.675781 -44.886719 7.09375 -44.742188 6.515625 -45.035156 C 6.082031 -45.324219 5.792969 -45.902344 5.9375 -46.335938 C 14.191406 -79.785156 33.304688 -115.695312 40.6875 -116.855469 Z M 40.6875 -116.855469 "/></g></g></g><g clip-path="url(#d41b330f0e)"><g clip-path="url(#3f21957ab6)"><path fill="#ffffff" d="M 224.128906 69.652344 L 294.097656 69.652344 L 294.097656 139.625 L 224.128906 139.625 Z M 224.128906 69.652344 " fill-opacity="1" fill-rule="nonzero"/></g></g><g fill="#282929" fill-opacity="1"><g transform="translate(228.153936, 124.077726)"><g><path d="M 100.78125 -38.082031 C 99.1875 -39.53125 96.726562 -39.386719 95.425781 -37.792969 C 83.984375 -25.917969 65.449219 -24.761719 52.707031 -35.042969 C 49.667969 -37.214844 45.46875 -37.070312 42.714844 -34.460938 C 41.125 -33.015625 39.386719 -31.421875 37.648438 -29.539062 C 32.144531 -23.3125 31.132812 -28.527344 31.132812 -32 C 31.132812 -35.042969 30.554688 -38.226562 29.539062 -41.125 C 28.960938 -42.570312 27.511719 -43.585938 25.917969 -43.585938 C 24.328125 -43.441406 23.023438 -42.570312 22.445312 -40.980469 C 18.390625 -29.683594 9.703125 -13.175781 3.621094 -12.019531 C 3.1875 -11.875 2.027344 -11.730469 0.289062 -13.613281 C -0.578125 -17.375 0 -21.429688 1.882812 -24.90625 C 6.226562 -36.636719 16.941406 -44.886719 29.394531 -46.046875 C 31.566406 -46.191406 33.160156 -48.074219 33.015625 -50.101562 C 32.871094 -52.273438 30.988281 -53.867188 28.960938 -53.722656 C 13.464844 -52.273438 0.144531 -42.136719 -5.359375 -27.511719 C -7.820312 -21.140625 -9.265625 -12.742188 -5.359375 -8.542969 C -2.75 -5.359375 1.160156 -3.910156 5.066406 -4.632812 C 12.308594 -6.082031 18.824219 -15.636719 23.457031 -24.328125 C 23.167969 -20.851562 22.734375 -16.941406 22.15625 -12.886719 C 22.011719 -12.019531 21.71875 -11.292969 21.285156 -10.714844 C 4.34375 10.714844 -11.003906 36.636719 -11.292969 52.996094 C -11.730469 57.339844 -10.136719 61.683594 -7.238281 64.871094 C -5.792969 66.320312 -4.054688 67.042969 -2.171875 67.042969 C -0.578125 67.042969 1.011719 66.609375 2.316406 65.738281 C 11.875 59.367188 24.035156 22.15625 28.816406 -7.386719 C 28.960938 -7.964844 29.25 -8.542969 29.683594 -9.121094 C 34.753906 -15.347656 40.109375 -21.285156 45.757812 -26.933594 C 47.058594 -28.234375 49.085938 -28.382812 50.535156 -27.367188 C 66.464844 -16.652344 87.605469 -18.96875 100.925781 -32.726562 C 102.230469 -34.316406 102.230469 -36.636719 100.78125 -38.082031 Z M 4.34375 50.390625 C 1.011719 57.050781 -0.144531 59.949219 -1.882812 59.367188 C -3.621094 58.933594 -3.765625 56.039062 -3.621094 53.140625 C -3.332031 41.992188 16.074219 4.199219 18.824219 5.359375 C 21.574219 6.515625 9.847656 38.953125 4.34375 50.390625 Z M 4.34375 50.390625 "/></g></g></g><g clip-path="url(#5004b57191)"><g clip-path="url(#67d3bcd876)"><g clip-path="url(#dccc06015d)"><path fill="#00bf63" d="M 342.203125 66.871094 L 350.097656 72.730469 L 344.339844 80.488281 L 336.445312 74.628906 Z M 342.203125 66.871094 " fill-opacity="1" fill-rule="nonzero"/></g></g></g><g fill="#282929" fill-opacity="1"><g transform="translate(0.497191, 176.540847)"><g><path d="M 3.03125 0 L 3.03125 -22.265625 L 9.390625 -22.265625 C 11.960938 -22.265625 14.007812 -21.828125 15.53125 -20.953125 C 17.0625 -20.078125 17.828125 -18.765625 17.828125 -17.015625 C 17.828125 -15.785156 17.394531 -14.71875 16.53125 -13.8125 C 15.664062 -12.90625 14.460938 -12.210938 12.921875 -11.734375 C 14.960938 -11.359375 16.503906 -10.671875 17.546875 -9.671875 C 18.585938 -8.671875 19.109375 -7.578125 19.109375 -6.390625 C 19.109375 -5.203125 18.804688 -4.1875 18.203125 -3.34375 C 17.597656 -2.5 16.820312 -1.851562 15.875 -1.40625 C 13.96875 -0.46875 12.019531 0 10.03125 0 Z M 6.296875 -12.078125 L 8.71875 -12.078125 C 10.757812 -12.078125 12.222656 -12.53125 13.109375 -13.4375 C 13.992188 -14.34375 14.4375 -15.484375 14.4375 -16.859375 C 14.4375 -17.773438 14.125 -18.609375 13.5 -19.359375 C 12.882812 -20.109375 11.941406 -20.675781 10.671875 -21.0625 C 9.140625 -21.0625 7.679688 -20.835938 6.296875 -20.390625 Z M 6.296875 -11.09375 L 6.296875 -1.515625 C 7.015625 -1.285156 8.125 -1.171875 9.625 -1.171875 C 11.125 -1.171875 12.457031 -1.585938 13.625 -2.421875 C 14.789062 -3.253906 15.375 -4.410156 15.375 -5.890625 C 15.375 -7.367188 14.734375 -8.601562 13.453125 -9.59375 C 12.171875 -10.59375 10.632812 -11.09375 8.84375 -11.09375 Z M 6.296875 -11.09375 "/></g></g></g><g fill="#282929" fill-opacity="1"><g transform="translate(22.162787, 176.540847)"><g/></g></g><g fill="#282929" fill-opacity="1"><g transform="translate(30.573346, 176.540847)"><g><path d="M 6.296875 -11.03125 L 6.296875 0 L 3.03125 0 L 3.03125 -22.265625 L 6.296875 -22.265625 L 6.296875 -12.3125 L 16.484375 -12.3125 L 16.484375 -22.265625 L 19.75 -22.265625 L 19.75 0 L 16.484375 0 L 16.484375 -11.03125 Z M 6.296875 -11.03125 "/></g></g></g><g fill="#282929" fill-opacity="1"><g transform="translate(53.349131, 176.540847)"><g/></g></g><g fill="#282929" fill-opacity="1"><g transform="translate(61.75969, 176.540847)"><g><path d="M 0.34375 0 L 10.328125 -22.8125 L 10.828125 -22.8125 L 20.828125 0 L 17.15625 0 L 14.640625 -6.0625 L 4.640625 -6.0625 L 2.15625 0 Z M 5.140625 -7.328125 L 14.09375 -7.328125 L 9.65625 -18.234375 Z M 5.140625 -7.328125 "/></g></g></g><g fill="#282929" fill-opacity="1"><g transform="translate(82.920649, 176.540847)"><g/></g></g><g fill="#282929" fill-opacity="1"><g transform="translate(91.331207, 176.540847)"><g><path d="M 10.328125 0.53125 L 0.34375 -22.265625 L 4 -22.265625 L 11.40625 -4.03125 L 18.0625 -22.265625 L 19.75 -22.265625 L 10.859375 0.53125 Z M 10.328125 0.53125 "/></g></g></g><g fill="#282929" fill-opacity="1"><g transform="translate(111.415615, 176.540847)"><g/></g></g><g fill="#282929" fill-opacity="1"><g transform="translate(119.826173, 176.540847)"><g><path d="M 0.34375 0 L 10.328125 -22.8125 L 10.828125 -22.8125 L 20.828125 0 L 17.15625 0 L 14.640625 -6.0625 L 4.640625 -6.0625 L 2.15625 0 Z M 5.140625 -7.328125 L 14.09375 -7.328125 L 9.65625 -18.234375 Z M 5.140625 -7.328125 "/></g></g></g><g fill="#282929" fill-opacity="1"><g transform="translate(140.987132, 176.540847)"><g/></g></g><g fill="#282929" fill-opacity="1"><g transform="translate(149.397691, 176.540847)"><g><path d="M 19.953125 0.375 L 19.375 0.375 L 4.640625 -18.0625 L 4.515625 -18.0625 L 4.515625 0 L 3.03125 0 L 3.03125 -22.265625 L 5.515625 -22.265625 L 18.328125 -6.09375 L 18.46875 -6.09375 L 18.46875 -22.265625 L 19.953125 -22.265625 Z M 19.953125 0.375 "/></g></g></g><g fill="#282929" fill-opacity="1"><g transform="translate(172.375327, 176.540847)"><g/></g></g><g fill="#282929" fill-opacity="1"><g transform="translate(180.785885, 176.540847)"><g><path d="M 0.34375 0 L 10.328125 -22.8125 L 10.828125 -22.8125 L 20.828125 0 L 17.15625 0 L 14.640625 -6.0625 L 4.640625 -6.0625 L 2.15625 0 Z M 5.140625 -7.328125 L 14.09375 -7.328125 L 9.65625 -18.234375 Z M 5.140625 -7.328125 "/></g></g></g><g fill="#282929" fill-opacity="1"><g transform="translate(201.937627, 176.540847)"><g/></g></g><g fill="#282929" fill-opacity="1"><g transform="translate(210.348185, 176.540847)"><g/></g></g><g fill="#282929" fill-opacity="1"><g transform="translate(218.758744, 176.540847)"><g/></g></g><g fill="#282929" fill-opacity="1"><g transform="translate(227.169302, 176.540847)"><g/></g></g><g fill="#282929" fill-opacity="1"><g transform="translate(235.579861, 176.540847)"><g/></g></g><g fill="#282929" fill-opacity="1"><g transform="translate(243.990419, 176.540847)"><g/></g></g><g fill="#282929" fill-opacity="1"><g transform="translate(252.400978, 176.540847)"><g/></g></g><g fill="#282929" fill-opacity="1"><g transform="translate(260.805621, 176.540847)"><g><path d="M 17.125 -9.59375 L 20.390625 -9.59375 L 20.390625 -0.734375 C 18.460938 0.0234375 16.140625 0.40625 13.421875 0.40625 C 10.128906 0.40625 7.289062 -0.46875 4.90625 -2.21875 C 3.738281 -3.09375 2.804688 -4.238281 2.109375 -5.65625 C 1.421875 -7.082031 1.078125 -8.660156 1.078125 -10.390625 C 1.078125 -12.117188 1.34375 -13.671875 1.875 -15.046875 C 2.414062 -16.429688 3.117188 -17.582031 3.984375 -18.5 C 4.847656 -19.414062 5.851562 -20.203125 7 -20.859375 C 9.125 -22.066406 11.46875 -22.671875 14.03125 -22.671875 C 15.019531 -22.671875 16.082031 -22.554688 17.21875 -22.328125 C 18.363281 -22.109375 19.238281 -21.875 19.84375 -21.625 L 19.515625 -19.375 C 16.484375 -20.65625 13.96875 -21.296875 11.96875 -21.296875 C 9.707031 -20.710938 7.921875 -19.507812 6.609375 -17.6875 C 5.296875 -15.875 4.640625 -13.65625 4.640625 -11.03125 C 4.640625 -7.757812 5.503906 -5.234375 7.234375 -3.453125 C 8.960938 -1.671875 11.238281 -0.78125 14.0625 -0.78125 C 15.1875 -0.78125 16.207031 -0.890625 17.125 -1.109375 Z M 17.125 -9.59375 "/></g></g></g><g fill="#282929" fill-opacity="1"><g transform="translate(283.682343, 176.540847)"><g/></g></g><g fill="#282929" fill-opacity="1"><g transform="translate(292.092902, 176.540847)"><g><path d="M 0.34375 0 L 10.328125 -22.8125 L 10.828125 -22.8125 L 20.828125 0 L 17.15625 0 L 14.640625 -6.0625 L 4.640625 -6.0625 L 2.15625 0 Z M 5.140625 -7.328125 L 14.09375 -7.328125 L 9.65625 -18.234375 Z M 5.140625 -7.328125 "/></g></g></g><g fill="#282929" fill-opacity="1"><g transform="translate(313.253861, 176.540847)"><g/></g></g><g fill="#282929" fill-opacity="1"><g transform="translate(321.664419, 176.540847)"><g><path d="M 6.328125 -10.625 L 6.328125 0 L 3.03125 0 L 3.03125 -22.265625 L 10.296875 -22.265625 C 12.554688 -22.265625 14.410156 -21.757812 15.859375 -20.75 C 17.304688 -19.75 18.03125 -18.421875 18.03125 -16.765625 C 18.03125 -15.117188 17.453125 -13.816406 16.296875 -12.859375 C 15.140625 -11.910156 13.578125 -11.257812 11.609375 -10.90625 L 20.625 0 L 16.71875 0.46875 L 8.921875 -10.625 Z M 6.328125 -11.640625 L 8.484375 -11.640625 C 12.515625 -11.640625 14.53125 -13.234375 14.53125 -16.421875 C 14.53125 -16.953125 14.394531 -17.554688 14.125 -18.234375 C 13.613281 -19.648438 12.515625 -20.582031 10.828125 -21.03125 C 9.304688 -21.03125 7.804688 -20.835938 6.328125 -20.453125 Z M 6.328125 -11.640625 "/></g></g></g><g fill="#282929" fill-opacity="1"><g transform="translate(343.128166, 176.540847)"><g/></g></g><g fill="#282929" fill-opacity="1"><g transform="translate(351.538724, 176.540847)"><g><path d="M 17.125 -9.59375 L 20.390625 -9.59375 L 20.390625 -0.734375 C 18.460938 0.0234375 16.140625 0.40625 13.421875 0.40625 C 10.128906 0.40625 7.289062 -0.46875 4.90625 -2.21875 C 3.738281 -3.09375 2.804688 -4.238281 2.109375 -5.65625 C 1.421875 -7.082031 1.078125 -8.660156 1.078125 -10.390625 C 1.078125 -12.117188 1.34375 -13.671875 1.875 -15.046875 C 2.414062 -16.429688 3.117188 -17.582031 3.984375 -18.5 C 4.847656 -19.414062 5.851562 -20.203125 7 -20.859375 C 9.125 -22.066406 11.46875 -22.671875 14.03125 -22.671875 C 15.019531 -22.671875 16.082031 -22.554688 17.21875 -22.328125 C 18.363281 -22.109375 19.238281 -21.875 19.84375 -21.625 L 19.515625 -19.375 C 16.484375 -20.65625 13.96875 -21.296875 11.96875 -21.296875 C 9.707031 -20.710938 7.921875 -19.507812 6.609375 -17.6875 C 5.296875 -15.875 4.640625 -13.65625 4.640625 -11.03125 C 4.640625 -7.757812 5.503906 -5.234375 7.234375 -3.453125 C 8.960938 -1.671875 11.238281 -0.78125 14.0625 -0.78125 C 15.1875 -0.78125 16.207031 -0.890625 17.125 -1.109375 Z M 17.125 -9.59375 "/></g></g></g><g fill="#282929" fill-opacity="1"><g transform="translate(122.399573, 215.664322)"><g><path d="M 11.03125 0.203125 L 10.703125 0.203125 L 2.5625 -9.984375 L 2.484375 -9.984375 L 2.484375 0 L 1.671875 0 L 1.671875 -12.3125 L 3.046875 -12.3125 L 10.140625 -3.359375 L 10.203125 -3.359375 L 10.203125 -12.3125 L 11.03125 -12.3125 Z M 11.03125 0.203125 "/></g></g></g><g fill="#282929" fill-opacity="1"><g transform="translate(135.09413, 215.664322)"><g/></g></g><g fill="#282929" fill-opacity="1"><g transform="translate(139.740737, 215.664322)"><g><path d="M 10.828125 -12.3125 L 10.828125 -4.765625 C 10.828125 -3.609375 10.703125 -2.738281 10.453125 -2.15625 C 10.335938 -1.894531 10.160156 -1.597656 9.921875 -1.265625 C 9.679688 -0.941406 9.398438 -0.679688 9.078125 -0.484375 C 8.253906 -0.015625 7.226562 0.21875 6 0.21875 C 2.925781 0.21875 1.390625 -1.359375 1.390625 -4.515625 L 1.390625 -12.3125 L 3.296875 -12.3125 L 3.296875 -4.375 C 3.296875 -4.007812 3.300781 -3.710938 3.3125 -3.484375 C 3.320312 -3.265625 3.382812 -2.953125 3.5 -2.546875 C 3.625 -2.140625 3.785156 -1.8125 3.984375 -1.5625 C 4.191406 -1.3125 4.515625 -1.085938 4.953125 -0.890625 C 5.390625 -0.691406 5.914062 -0.59375 6.53125 -0.59375 C 8.84375 -0.59375 10 -1.832031 10 -4.3125 L 10 -12.3125 Z M 10.828125 -12.3125 "/></g></g></g><g fill="#282929" fill-opacity="1"><g transform="translate(151.952032, 215.664322)"><g/></g></g><g fill="#282929" fill-opacity="1"><g transform="translate(156.598638, 215.664322)"><g><path d="M 5.875 0 L 4.078125 0 L 4.078125 -11.421875 C 3.648438 -11.515625 3.226562 -11.5625 2.8125 -11.5625 L 0.296875 -10.984375 L 0.1875 -12.3125 L 9.765625 -12.3125 L 9.671875 -10.984375 L 7.140625 -11.5625 C 6.722656 -11.5625 6.300781 -11.515625 5.875 -11.421875 Z M 5.875 0 "/></g></g></g><g fill="#282929" fill-opacity="1"><g transform="translate(166.542393, 215.664322)"><g/></g></g><g fill="#282929" fill-opacity="1"><g transform="translate(171.189, 215.664322)"><g><path d="M 3.5 -5.875 L 3.5 0 L 1.671875 0 L 1.671875 -12.3125 L 5.6875 -12.3125 C 6.9375 -12.3125 7.960938 -12.03125 8.765625 -11.46875 C 9.566406 -10.914062 9.96875 -10.179688 9.96875 -9.265625 C 9.96875 -8.359375 9.644531 -7.640625 9 -7.109375 C 8.363281 -6.585938 7.503906 -6.226562 6.421875 -6.03125 L 11.390625 0 L 9.234375 0.265625 L 4.921875 -5.875 Z M 3.5 -6.4375 L 4.6875 -6.4375 C 6.914062 -6.4375 8.03125 -7.316406 8.03125 -9.078125 C 8.03125 -9.367188 7.957031 -9.703125 7.8125 -10.078125 C 7.519531 -10.859375 6.910156 -11.375 5.984375 -11.625 C 5.140625 -11.625 4.3125 -11.519531 3.5 -11.3125 Z M 3.5 -6.4375 "/></g></g></g><g fill="#282929" fill-opacity="1"><g transform="translate(183.047159, 215.664322)"><g/></g></g><g fill="#282929" fill-opacity="1"><g transform="translate(187.693766, 215.664322)"><g><path d="M 3.390625 -12.3125 L 3.390625 0 L 1.671875 0 L 1.671875 -12.3125 Z M 3.390625 -12.3125 "/></g></g></g><g fill="#282929" fill-opacity="1"><g transform="translate(192.749283, 215.664322)"><g/></g></g><g fill="#282929" fill-opacity="1"><g transform="translate(197.39589, 215.664322)"><g><path d="M 5.875 0 L 4.078125 0 L 4.078125 -11.421875 C 3.648438 -11.515625 3.226562 -11.5625 2.8125 -11.5625 L 0.296875 -10.984375 L 0.1875 -12.3125 L 9.765625 -12.3125 L 9.671875 -10.984375 L 7.140625 -11.5625 C 6.722656 -11.5625 6.300781 -11.515625 5.875 -11.421875 Z M 5.875 0 "/></g></g></g><g fill="#282929" fill-opacity="1"><g transform="translate(207.339645, 215.664322)"><g/></g></g><g fill="#282929" fill-opacity="1"><g transform="translate(211.986251, 215.664322)"><g><path d="M 3.390625 -12.3125 L 3.390625 0 L 1.671875 0 L 1.671875 -12.3125 Z M 3.390625 -12.3125 "/></g></g></g><g fill="#282929" fill-opacity="1"><g transform="translate(217.041769, 215.664322)"><g/></g></g><g fill="#282929" fill-opacity="1"><g transform="translate(221.688375, 215.664322)"><g><path d="M 7.265625 -12.53125 C 8.878906 -12.53125 10.210938 -12 11.265625 -10.9375 C 12.316406 -9.882812 12.84375 -8.414062 12.84375 -6.53125 C 12.84375 -5.3125 12.628906 -4.242188 12.203125 -3.328125 C 11.785156 -2.421875 11.238281 -1.722656 10.5625 -1.234375 C 9.238281 -0.265625 7.773438 0.21875 6.171875 0.21875 C 4.578125 0.21875 3.253906 -0.316406 2.203125 -1.390625 C 1.148438 -2.460938 0.625 -3.9375 0.625 -5.8125 C 0.625 -6.789062 0.765625 -7.675781 1.046875 -8.46875 C 1.328125 -9.257812 1.691406 -9.898438 2.140625 -10.390625 C 2.597656 -10.890625 3.125 -11.304688 3.71875 -11.640625 C 4.8125 -12.234375 5.992188 -12.53125 7.265625 -12.53125 Z M 3.53125 -2.125 C 3.851562 -1.570312 4.285156 -1.144531 4.828125 -0.84375 C 5.378906 -0.539062 6.007812 -0.390625 6.71875 -0.390625 C 7.4375 -0.390625 8.070312 -0.566406 8.625 -0.921875 C 9.1875 -1.285156 9.617188 -1.757812 9.921875 -2.34375 C 10.554688 -3.507812 10.875 -4.757812 10.875 -6.09375 C 10.875 -7.75 10.546875 -9.078125 9.890625 -10.078125 C 9.160156 -11.203125 7.953125 -11.765625 6.265625 -11.765625 C 5.066406 -11.347656 4.15625 -10.625 3.53125 -9.59375 C 2.914062 -8.5625 2.609375 -7.394531 2.609375 -6.09375 C 2.609375 -4.507812 2.914062 -3.1875 3.53125 -2.125 Z M 3.53125 -2.125 "/></g></g></g><g fill="#282929" fill-opacity="1"><g transform="translate(235.163555, 215.664322)"><g/></g></g><g fill="#282929" fill-opacity="1"><g transform="translate(239.810162, 215.664322)"><g><path d="M 11.03125 0.203125 L 10.703125 0.203125 L 2.5625 -9.984375 L 2.484375 -9.984375 L 2.484375 0 L 1.671875 0 L 1.671875 -12.3125 L 3.046875 -12.3125 L 10.140625 -3.359375 L 10.203125 -3.359375 L 10.203125 -12.3125 L 11.03125 -12.3125 Z M 11.03125 0.203125 "/></g></g></g></svg>