<svg xmlns="http://www.w3.org/2000/svg" xmlns:xlink="http://www.w3.org/1999/xlink" width="500" zoomAndPan="magnify" viewBox="0 0 375 220.499993" height="294" preserveAspectRatio="xMidYMid meet" version="1.0"><defs><g/><clipPath id="354a8f16c3"><path d="M 0.425781 0 L 374.574219 0 L 374.574219 220 L 0.425781 220 Z M 0.425781 0 " clip-rule="nonzero"/></clipPath><clipPath id="76fad123ee"><path d="M 224.128906 69.652344 L 294.097656 69.652344 L 294.097656 139.625 L 224.128906 139.625 Z M 224.128906 69.652344 " clip-rule="nonzero"/></clipPath><clipPath id="d5bbe884a1"><path d="M 259.113281 69.652344 C 239.792969 69.652344 224.128906 85.316406 224.128906 104.636719 C 224.128906 123.960938 239.792969 139.625 259.113281 139.625 C 278.433594 139.625 294.097656 123.960938 294.097656 104.636719 C 294.097656 85.316406 278.433594 69.652344 259.113281 69.652344 Z M 259.113281 69.652344 " clip-rule="nonzero"/></clipPath><clipPath id="7d0775ead7"><path d="M 338 68 L 349 68 L 349 79 L 338 79 Z M 338 68 " clip-rule="nonzero"/></clipPath><clipPath id="db9d3ab409"><path d="M 342.203125 66.871094 L 350.113281 72.742188 L 344.351562 80.496094 L 336.445312 74.628906 Z M 342.203125 66.871094 " clip-rule="nonzero"/></clipPath><clipPath id="a7735ad785"><path d="M 346.148438 69.800781 C 343.972656 68.183594 340.914062 68.609375 339.324219 70.75 C 337.734375 72.890625 338.210938 75.9375 340.390625 77.558594 C 342.570312 79.175781 345.628906 78.75 347.21875 76.609375 C 348.808594 74.46875 348.328125 71.417969 346.148438 69.800781 Z M 346.148438 69.800781 " clip-rule="nonzero"/></clipPath></defs><g clip-path="url(#354a8f16c3)"><path fill="#ffffff" d="M 0.425781 0 L 374.574219 0 L 374.574219 220 L 0.425781 220 Z M 0.425781 0 " fill-opacity="1" fill-rule="nonzero"/><path fill="#ffffff" d="M 0.425781 0 L 374.574219 0 L 374.574219 220 L 0.425781 220 Z M 0.425781 0 " fill-opacity="1" fill-rule="nonzero"/></g><g fill="#282929" fill-opacity="1"><g transform="translate(167.136667, 124.077726)"><g><path d="M 109.90625 -36.34375 C 110.675781 -35.570312 111.0625 -34.65625 111.0625 -33.59375 C 110.96875 -32.53125 110.53125 -31.660156 109.75 -30.984375 C 104.539062 -25.960938 98.921875 -22.242188 92.890625 -19.828125 C 86.859375 -17.421875 80.679688 -16.070312 74.359375 -15.78125 C 68.035156 -15.488281 61.757812 -15.992188 55.53125 -17.296875 C 49.300781 -18.609375 43.390625 -20.46875 37.796875 -22.875 C 36.347656 -23.457031 34.898438 -23.410156 33.453125 -22.734375 C 32.003906 -22.054688 31.035156 -20.945312 30.546875 -19.40625 C 29.679688 -16.125 28.378906 -13.035156 26.640625 -10.140625 C 24.898438 -6.859375 22.4375 -4.203125 19.25 -2.171875 C 16.070312 -0.140625 12.597656 0.921875 8.828125 1.015625 C 7.484375 1.015625 6.179688 0.914062 4.921875 0.71875 L 3.46875 0.140625 C -4.726562 -4.296875 -7.234375 -16.21875 -4.046875 -35.625 C -3.179688 -40.925781 -1.851562 -46.710938 -0.0625 -52.984375 C 1.71875 -59.265625 3.789062 -65.660156 6.15625 -72.171875 C 8.519531 -78.691406 11.097656 -84.96875 13.890625 -91 C 16.691406 -97.03125 19.585938 -102.484375 22.578125 -107.359375 C 25.578125 -112.234375 28.523438 -116.191406 31.421875 -119.234375 C 34.316406 -122.273438 37.066406 -123.988281 39.671875 -124.375 C 41.703125 -124.957031 43.65625 -124.8125 45.53125 -123.9375 C 47.414062 -123.070312 48.84375 -121.722656 49.8125 -119.890625 C 50.875 -117.472656 51.039062 -114.238281 50.3125 -110.1875 C 49.59375 -106.132812 48.191406 -101.523438 46.109375 -96.359375 C 44.035156 -91.191406 41.523438 -85.804688 38.578125 -80.203125 C 35.640625 -74.609375 32.476562 -69.035156 29.09375 -63.484375 C 25.71875 -57.941406 22.363281 -52.753906 19.03125 -47.921875 C 15.707031 -43.097656 12.644531 -38.925781 9.84375 -35.40625 C 7.039062 -31.882812 4.722656 -29.300781 2.890625 -27.65625 C 2.796875 -27.5625 2.703125 -27.460938 2.609375 -27.359375 C 2.117188 -23.117188 2.164062 -18.875 2.75 -14.625 C 3.226562 -11.4375 4.914062 -9.265625 7.8125 -8.109375 C 10.8125 -6.953125 13.566406 -7.335938 16.078125 -9.265625 C 17.710938 -10.617188 19.109375 -12.257812 20.265625 -14.1875 C 22.203125 -17.46875 23.457031 -20.992188 24.03125 -24.765625 C 24.414062 -27.941406 23.304688 -30.351562 20.703125 -32 C 19.253906 -32.96875 17.90625 -33.929688 16.65625 -34.890625 C 15.5 -35.765625 15.015625 -36.972656 15.203125 -38.515625 C 15.398438 -39.960938 16.222656 -40.925781 17.671875 -41.40625 C 19.597656 -42.28125 21.597656 -42.472656 23.671875 -41.984375 C 25.742188 -41.503906 27.457031 -40.445312 28.8125 -38.8125 C 29.78125 -37.550781 30.503906 -36.148438 30.984375 -34.609375 C 36.203125 -31.617188 41.945312 -29.109375 48.21875 -27.078125 C 54.488281 -25.046875 60.929688 -23.8125 67.546875 -23.375 C 74.160156 -22.945312 80.648438 -23.722656 87.015625 -25.703125 C 93.390625 -27.679688 99.234375 -31.273438 104.546875 -36.484375 C 105.316406 -37.160156 106.234375 -37.5 107.296875 -37.5 C 108.359375 -37.5 109.226562 -37.113281 109.90625 -36.34375 Z M 40.828125 -116.84375 C 39.285156 -116.65625 37.378906 -115.1875 35.109375 -112.4375 C 32.835938 -109.6875 30.375 -105.96875 27.71875 -101.28125 C 25.070312 -96.601562 22.394531 -91.296875 19.6875 -85.359375 C 16.988281 -79.421875 14.429688 -73.117188 12.015625 -66.453125 C 9.597656 -59.796875 7.570312 -53.140625 5.9375 -46.484375 C 5.738281 -45.804688 5.976562 -45.320312 6.65625 -45.03125 C 7.238281 -44.738281 7.722656 -44.882812 8.109375 -45.46875 C 15.148438 -55.21875 21.617188 -65.304688 27.515625 -75.734375 C 32.429688 -84.515625 36.070312 -91.75 38.4375 -97.4375 C 40.800781 -103.132812 42.25 -107.53125 42.78125 -110.625 C 43.3125 -113.71875 43.335938 -115.695312 42.859375 -116.5625 C 42.859375 -116.65625 42.785156 -116.75 42.640625 -116.84375 C 42.492188 -116.945312 42.226562 -117 41.84375 -117 C 41.457031 -117 41.117188 -116.945312 40.828125 -116.84375 Z M 40.828125 -116.84375 "/></g></g></g><g clip-path="url(#76fad123ee)"><g clip-path="url(#d5bbe884a1)"><path fill="#ffffff" d="M 224.128906 69.652344 L 294.097656 69.652344 L 294.097656 139.625 L 224.128906 139.625 Z M 224.128906 69.652344 " fill-opacity="1" fill-rule="nonzero"/></g></g><g fill="#282929" fill-opacity="1"><g transform="translate(228.153936, 124.077726)"><g><path d="M 100.78125 -38.078125 C 101.550781 -37.398438 101.957031 -36.53125 102 -35.46875 C 102.050781 -34.40625 101.691406 -33.539062 100.921875 -32.875 C 96.578125 -28.238281 91.484375 -24.929688 85.640625 -22.953125 C 79.804688 -20.972656 73.847656 -20.320312 67.765625 -21 C 61.679688 -21.675781 55.984375 -23.796875 50.671875 -27.359375 C 48.941406 -28.523438 47.300781 -28.382812 45.75 -26.9375 C 40.0625 -21.332031 34.753906 -15.441406 29.828125 -9.265625 C 29.347656 -8.679688 29.054688 -8.054688 28.953125 -7.390625 C 27.992188 -1.492188 26.765625 4.585938 25.265625 10.859375 C 23.765625 17.128906 22.097656 23.234375 20.265625 29.171875 C 18.429688 35.109375 16.5 40.609375 14.46875 45.671875 C 12.445312 50.742188 10.398438 55.015625 8.328125 58.484375 C 6.253906 61.960938 4.25 64.332031 2.3125 65.59375 C 0.96875 66.5625 -0.476562 67.046875 -2.03125 67.046875 C -4.050781 67.046875 -5.738281 66.320312 -7.09375 64.875 C -10.28125 61.488281 -11.679688 57.476562 -11.296875 52.84375 C -11.203125 48.789062 -10.234375 44.207031 -8.390625 39.09375 C -6.554688 33.976562 -4.144531 28.597656 -1.15625 22.953125 C 1.832031 17.304688 5.257812 11.609375 9.125 5.859375 C 12.988281 0.117188 17.039062 -5.40625 21.28125 -10.71875 C 21.769531 -11.394531 22.0625 -12.117188 22.15625 -12.890625 C 22.832031 -17.140625 23.265625 -21 23.453125 -24.46875 C 22.003906 -21.570312 20.316406 -18.695312 18.390625 -15.84375 C 16.460938 -13 14.382812 -10.539062 12.15625 -8.46875 C 9.9375 -6.394531 7.625 -5.117188 5.21875 -4.640625 C 0.96875 -3.859375 -2.507812 -5.160156 -5.21875 -8.546875 C -7.144531 -10.671875 -7.9375 -13.585938 -7.59375 -17.296875 C -7.257812 -21.015625 -6.46875 -24.46875 -5.21875 -27.65625 C -2.507812 -34.894531 1.929688 -40.878906 8.109375 -45.609375 C 14.285156 -50.335938 21.234375 -53.039062 28.953125 -53.71875 C 30.015625 -53.8125 30.957031 -53.519531 31.78125 -52.84375 C 32.601562 -52.175781 33.015625 -51.3125 33.015625 -50.25 C 33.109375 -49.1875 32.816406 -48.242188 32.140625 -47.421875 C 31.460938 -46.597656 30.59375 -46.1875 29.53125 -46.1875 C 23.257812 -45.507812 17.640625 -43.265625 12.671875 -39.453125 C 7.703125 -35.640625 4.101562 -30.835938 1.875 -25.046875 C -0.0507812 -21.378906 -0.53125 -17.566406 0.4375 -13.609375 C 1.300781 -12.742188 2 -12.257812 2.53125 -12.15625 C 3.0625 -12.0625 3.472656 -12.0625 3.765625 -12.15625 C 5.210938 -12.445312 6.828125 -13.554688 8.609375 -15.484375 C 10.398438 -17.421875 12.160156 -19.859375 13.890625 -22.796875 C 15.628906 -25.742188 17.25 -28.832031 18.75 -32.0625 C 20.25 -35.300781 21.53125 -38.320312 22.59375 -41.125 C 23.164062 -42.757812 24.320312 -43.578125 26.0625 -43.578125 C 27.800781 -43.578125 29.007812 -42.804688 29.6875 -41.265625 C 30.644531 -38.273438 31.125 -35.1875 31.125 -32 C 31.226562 -30.9375 31.421875 -29.800781 31.703125 -28.59375 C 31.992188 -27.382812 32.625 -26.734375 33.59375 -26.640625 C 34.5625 -26.546875 35.960938 -27.507812 37.796875 -29.53125 C 38.566406 -30.5 39.382812 -31.394531 40.25 -32.21875 C 41.125 -33.039062 41.992188 -33.835938 42.859375 -34.609375 C 44.210938 -35.859375 45.828125 -36.53125 47.703125 -36.625 C 49.585938 -36.726562 51.300781 -36.203125 52.84375 -35.046875 C 57.09375 -31.660156 61.800781 -29.507812 66.96875 -28.59375 C 72.132812 -27.675781 77.226562 -28.015625 82.25 -29.609375 C 87.269531 -31.203125 91.660156 -33.976562 95.421875 -37.9375 C 96.097656 -38.707031 96.96875 -39.113281 98.03125 -39.15625 C 99.09375 -39.207031 100.007812 -38.847656 100.78125 -38.078125 Z M 4.34375 50.25 C 5.5 48.03125 6.800781 45.109375 8.25 41.484375 C 9.695312 37.859375 11.171875 33.992188 12.671875 29.890625 C 14.171875 25.796875 15.472656 21.9375 16.578125 18.3125 C 17.691406 14.695312 18.488281 11.679688 18.96875 9.265625 C 19.445312 6.847656 19.445312 5.546875 18.96875 5.359375 C 18.488281 5.160156 17.617188 5.929688 16.359375 7.671875 C 15.109375 9.410156 13.632812 11.75 11.9375 14.6875 C 10.25 17.632812 8.507812 20.914062 6.71875 24.53125 C 4.9375 28.15625 3.273438 31.800781 1.734375 35.46875 C 0.191406 39.144531 -1.054688 42.523438 -2.015625 45.609375 C -2.984375 48.703125 -3.519531 51.164062 -3.625 53 C -3.625 54.445312 -3.550781 55.796875 -3.40625 57.046875 C -3.257812 58.304688 -2.75 59.078125 -1.875 59.359375 C -1.007812 59.554688 -0.171875 58.929688 0.640625 57.484375 C 1.460938 56.035156 2.695312 53.625 4.34375 50.25 Z M 4.34375 50.25 "/></g></g></g><g clip-path="url(#7d0775ead7)"><g clip-path="url(#db9d3ab409)"><g clip-path="url(#a7735ad785)"><path fill="#00bf63" d="M 342.203125 66.871094 L 350.113281 72.742188 L 344.351562 80.496094 L 336.445312 74.628906 Z M 342.203125 66.871094 " fill-opacity="1" fill-rule="nonzero"/></g></g></g><g fill="#282929" fill-opacity="1"><g transform="translate(0.448539, 176.540833)"><g><path d="M 3.03125 0 L 3.03125 -22.265625 L 9.390625 -22.265625 C 11.960938 -22.265625 14.007812 -21.828125 15.53125 -20.953125 C 17.0625 -20.078125 17.828125 -18.765625 17.828125 -17.015625 C 17.828125 -15.785156 17.394531 -14.71875 16.53125 -13.8125 C 15.664062 -12.90625 14.460938 -12.210938 12.921875 -11.734375 C 14.960938 -11.359375 16.503906 -10.671875 17.546875 -9.671875 C 18.585938 -8.671875 19.109375 -7.578125 19.109375 -6.390625 C 19.109375 -5.203125 18.804688 -4.1875 18.203125 -3.34375 C 17.597656 -2.5 16.820312 -1.851562 15.875 -1.40625 C 13.96875 -0.46875 12.019531 0 10.03125 0 Z M 6.296875 -12.078125 L 8.71875 -12.078125 C 10.757812 -12.078125 12.222656 -12.53125 13.109375 -13.4375 C 13.992188 -14.34375 14.4375 -15.484375 14.4375 -16.859375 C 14.4375 -17.773438 14.125 -18.609375 13.5 -19.359375 C 12.882812 -20.109375 11.941406 -20.675781 10.671875 -21.0625 C 9.140625 -21.0625 7.679688 -20.835938 6.296875 -20.390625 Z M 6.296875 -11.09375 L 6.296875 -1.515625 C 7.015625 -1.285156 8.125 -1.171875 9.625 -1.171875 C 11.125 -1.171875 12.457031 -1.585938 13.625 -2.421875 C 14.789062 -3.253906 15.375 -4.410156 15.375 -5.890625 C 15.375 -7.367188 14.734375 -8.601562 13.453125 -9.59375 C 12.171875 -10.59375 10.632812 -11.09375 8.84375 -11.09375 Z M 6.296875 -11.09375 "/></g></g></g><g fill="#282929" fill-opacity="1"><g transform="translate(22.114136, 176.540833)"><g/></g></g><g fill="#282929" fill-opacity="1"><g transform="translate(30.524695, 176.540833)"><g><path d="M 6.296875 -11.03125 L 6.296875 0 L 3.03125 0 L 3.03125 -22.265625 L 6.296875 -22.265625 L 6.296875 -12.3125 L 16.484375 -12.3125 L 16.484375 -22.265625 L 19.75 -22.265625 L 19.75 0 L 16.484375 0 L 16.484375 -11.03125 Z M 6.296875 -11.03125 "/></g></g></g><g fill="#282929" fill-opacity="1"><g transform="translate(53.30048, 176.540833)"><g/></g></g><g fill="#282929" fill-opacity="1"><g transform="translate(61.711039, 176.540833)"><g><path d="M 0.34375 0 L 10.328125 -22.8125 L 10.828125 -22.8125 L 20.828125 0 L 17.15625 0 L 14.640625 -6.0625 L 4.640625 -6.0625 L 2.15625 0 Z M 5.140625 -7.328125 L 14.09375 -7.328125 L 9.65625 -18.234375 Z M 5.140625 -7.328125 "/></g></g></g><g fill="#282929" fill-opacity="1"><g transform="translate(82.871997, 176.540833)"><g/></g></g><g fill="#282929" fill-opacity="1"><g transform="translate(91.282556, 176.540833)"><g><path d="M 10.328125 0.53125 L 0.34375 -22.265625 L 4 -22.265625 L 11.40625 -4.03125 L 18.0625 -22.265625 L 19.75 -22.265625 L 10.859375 0.53125 Z M 10.328125 0.53125 "/></g></g></g><g fill="#282929" fill-opacity="1"><g transform="translate(111.366964, 176.540833)"><g/></g></g><g fill="#282929" fill-opacity="1"><g transform="translate(119.777522, 176.540833)"><g><path d="M 0.34375 0 L 10.328125 -22.8125 L 10.828125 -22.8125 L 20.828125 0 L 17.15625 0 L 14.640625 -6.0625 L 4.640625 -6.0625 L 2.15625 0 Z M 5.140625 -7.328125 L 14.09375 -7.328125 L 9.65625 -18.234375 Z M 5.140625 -7.328125 "/></g></g></g><g fill="#282929" fill-opacity="1"><g transform="translate(140.938481, 176.540833)"><g/></g></g><g fill="#282929" fill-opacity="1"><g transform="translate(149.349039, 176.540833)"><g><path d="M 19.953125 0.375 L 19.375 0.375 L 4.640625 -18.0625 L 4.515625 -18.0625 L 4.515625 0 L 3.03125 0 L 3.03125 -22.265625 L 5.515625 -22.265625 L 18.328125 -6.09375 L 18.46875 -6.09375 L 18.46875 -22.265625 L 19.953125 -22.265625 Z M 19.953125 0.375 "/></g></g></g><g fill="#282929" fill-opacity="1"><g transform="translate(172.326675, 176.540833)"><g/></g></g><g fill="#282929" fill-opacity="1"><g transform="translate(180.737234, 176.540833)"><g><path d="M 0.34375 0 L 10.328125 -22.8125 L 10.828125 -22.8125 L 20.828125 0 L 17.15625 0 L 14.640625 -6.0625 L 4.640625 -6.0625 L 2.15625 0 Z M 5.140625 -7.328125 L 14.09375 -7.328125 L 9.65625 -18.234375 Z M 5.140625 -7.328125 "/></g></g></g><g fill="#282929" fill-opacity="1"><g transform="translate(201.913301, 176.540833)"><g/></g></g><g fill="#282929" fill-opacity="1"><g transform="translate(210.32386, 176.540833)"><g/></g></g><g fill="#282929" fill-opacity="1"><g transform="translate(218.734418, 176.540833)"><g/></g></g><g fill="#282929" fill-opacity="1"><g transform="translate(227.144977, 176.540833)"><g/></g></g><g fill="#282929" fill-opacity="1"><g transform="translate(235.555535, 176.540833)"><g/></g></g><g fill="#282929" fill-opacity="1"><g transform="translate(243.966094, 176.540833)"><g/></g></g><g fill="#282929" fill-opacity="1"><g transform="translate(252.376652, 176.540833)"><g/></g></g><g fill="#282929" fill-opacity="1"><g transform="translate(260.805621, 176.540833)"><g><path d="M 17.125 -9.59375 L 20.390625 -9.59375 L 20.390625 -0.734375 C 18.460938 0.0234375 16.140625 0.40625 13.421875 0.40625 C 10.128906 0.40625 7.289062 -0.46875 4.90625 -2.21875 C 3.738281 -3.09375 2.804688 -4.238281 2.109375 -5.65625 C 1.421875 -7.082031 1.078125 -8.660156 1.078125 -10.390625 C 1.078125 -12.117188 1.34375 -13.671875 1.875 -15.046875 C 2.414062 -16.429688 3.117188 -17.582031 3.984375 -18.5 C 4.847656 -19.414062 5.851562 -20.203125 7 -20.859375 C 9.125 -22.066406 11.46875 -22.671875 14.03125 -22.671875 C 15.019531 -22.671875 16.082031 -22.554688 17.21875 -22.328125 C 18.363281 -22.109375 19.238281 -21.875 19.84375 -21.625 L 19.515625 -19.375 C 16.484375 -20.65625 13.96875 -21.296875 11.96875 -21.296875 C 9.707031 -20.710938 7.921875 -19.507812 6.609375 -17.6875 C 5.296875 -15.875 4.640625 -13.65625 4.640625 -11.03125 C 4.640625 -7.757812 5.503906 -5.234375 7.234375 -3.453125 C 8.960938 -1.671875 11.238281 -0.78125 14.0625 -0.78125 C 15.1875 -0.78125 16.207031 -0.890625 17.125 -1.109375 Z M 17.125 -9.59375 "/></g></g></g><g fill="#282929" fill-opacity="1"><g transform="translate(283.682343, 176.540833)"><g/></g></g><g fill="#282929" fill-opacity="1"><g transform="translate(292.092902, 176.540833)"><g><path d="M 0.34375 0 L 10.328125 -22.8125 L 10.828125 -22.8125 L 20.828125 0 L 17.15625 0 L 14.640625 -6.0625 L 4.640625 -6.0625 L 2.15625 0 Z M 5.140625 -7.328125 L 14.09375 -7.328125 L 9.65625 -18.234375 Z M 5.140625 -7.328125 "/></g></g></g><g fill="#282929" fill-opacity="1"><g transform="translate(313.253861, 176.540833)"><g/></g></g><g fill="#282929" fill-opacity="1"><g transform="translate(321.664419, 176.540833)"><g><path d="M 6.328125 -10.625 L 6.328125 0 L 3.03125 0 L 3.03125 -22.265625 L 10.296875 -22.265625 C 12.554688 -22.265625 14.410156 -21.757812 15.859375 -20.75 C 17.304688 -19.75 18.03125 -18.421875 18.03125 -16.765625 C 18.03125 -15.117188 17.453125 -13.816406 16.296875 -12.859375 C 15.140625 -11.910156 13.578125 -11.257812 11.609375 -10.90625 L 20.625 0 L 16.71875 0.46875 L 8.921875 -10.625 Z M 6.328125 -11.640625 L 8.484375 -11.640625 C 12.515625 -11.640625 14.53125 -13.234375 14.53125 -16.421875 C 14.53125 -16.953125 14.394531 -17.554688 14.125 -18.234375 C 13.613281 -19.648438 12.515625 -20.582031 10.828125 -21.03125 C 9.304688 -21.03125 7.804688 -20.835938 6.328125 -20.453125 Z M 6.328125 -11.640625 "/></g></g></g><g fill="#282929" fill-opacity="1"><g transform="translate(343.128166, 176.540833)"><g/></g></g><g fill="#282929" fill-opacity="1"><g transform="translate(351.538724, 176.540833)"><g><path d="M 17.125 -9.59375 L 20.390625 -9.59375 L 20.390625 -0.734375 C 18.460938 0.0234375 16.140625 0.40625 13.421875 0.40625 C 10.128906 0.40625 7.289062 -0.46875 4.90625 -2.21875 C 3.738281 -3.09375 2.804688 -4.238281 2.109375 -5.65625 C 1.421875 -7.082031 1.078125 -8.660156 1.078125 -10.390625 C 1.078125 -12.117188 1.34375 -13.671875 1.875 -15.046875 C 2.414062 -16.429688 3.117188 -17.582031 3.984375 -18.5 C 4.847656 -19.414062 5.851562 -20.203125 7 -20.859375 C 9.125 -22.066406 11.46875 -22.671875 14.03125 -22.671875 C 15.019531 -22.671875 16.082031 -22.554688 17.21875 -22.328125 C 18.363281 -22.109375 19.238281 -21.875 19.84375 -21.625 L 19.515625 -19.375 C 16.484375 -20.65625 13.96875 -21.296875 11.96875 -21.296875 C 9.707031 -20.710938 7.921875 -19.507812 6.609375 -17.6875 C 5.296875 -15.875 4.640625 -13.65625 4.640625 -11.03125 C 4.640625 -7.757812 5.503906 -5.234375 7.234375 -3.453125 C 8.960938 -1.671875 11.238281 -0.78125 14.0625 -0.78125 C 15.1875 -0.78125 16.207031 -0.890625 17.125 -1.109375 Z M 17.125 -9.59375 "/></g></g></g><g fill="#282929" fill-opacity="1"><g transform="translate(122.399573, 215.664288)"><g><path d="M 11.03125 0.203125 L 10.703125 0.203125 L 2.5625 -9.984375 L 2.484375 -9.984375 L 2.484375 0 L 1.671875 0 L 1.671875 -12.3125 L 3.046875 -12.3125 L 10.140625 -3.359375 L 10.203125 -3.359375 L 10.203125 -12.3125 L 11.03125 -12.3125 Z M 11.03125 0.203125 "/></g></g></g><g fill="#282929" fill-opacity="1"><g transform="translate(135.094128, 215.664288)"><g/></g></g><g fill="#282929" fill-opacity="1"><g transform="translate(139.740734, 215.664288)"><g><path d="M 10.828125 -12.3125 L 10.828125 -4.765625 C 10.828125 -3.609375 10.703125 -2.738281 10.453125 -2.15625 C 10.335938 -1.894531 10.160156 -1.597656 9.921875 -1.265625 C 9.679688 -0.941406 9.398438 -0.679688 9.078125 -0.484375 C 8.253906 -0.015625 7.226562 0.21875 6 0.21875 C 2.925781 0.21875 1.390625 -1.359375 1.390625 -4.515625 L 1.390625 -12.3125 L 3.296875 -12.3125 L 3.296875 -4.375 C 3.296875 -4.007812 3.300781 -3.710938 3.3125 -3.484375 C 3.320312 -3.265625 3.382812 -2.953125 3.5 -2.546875 C 3.625 -2.140625 3.785156 -1.8125 3.984375 -1.5625 C 4.191406 -1.3125 4.515625 -1.085938 4.953125 -0.890625 C 5.390625 -0.691406 5.914062 -0.59375 6.53125 -0.59375 C 8.84375 -0.59375 10 -1.832031 10 -4.3125 L 10 -12.3125 Z M 10.828125 -12.3125 "/></g></g></g><g fill="#282929" fill-opacity="1"><g transform="translate(151.952027, 215.664288)"><g/></g></g><g fill="#282929" fill-opacity="1"><g transform="translate(156.598633, 215.664288)"><g><path d="M 5.875 0 L 4.078125 0 L 4.078125 -11.421875 C 3.648438 -11.515625 3.226562 -11.5625 2.8125 -11.5625 L 0.296875 -10.984375 L 0.1875 -12.3125 L 9.765625 -12.3125 L 9.671875 -10.984375 L 7.140625 -11.5625 C 6.722656 -11.5625 6.300781 -11.515625 5.875 -11.421875 Z M 5.875 0 "/></g></g></g><g fill="#282929" fill-opacity="1"><g transform="translate(166.542387, 215.664288)"><g/></g></g><g fill="#282929" fill-opacity="1"><g transform="translate(171.188992, 215.664288)"><g><path d="M 3.5 -5.875 L 3.5 0 L 1.671875 0 L 1.671875 -12.3125 L 5.6875 -12.3125 C 6.9375 -12.3125 7.960938 -12.03125 8.765625 -11.46875 C 9.566406 -10.914062 9.96875 -10.179688 9.96875 -9.265625 C 9.96875 -8.359375 9.644531 -7.640625 9 -7.109375 C 8.363281 -6.585938 7.503906 -6.226562 6.421875 -6.03125 L 11.390625 0 L 9.234375 0.265625 L 4.921875 -5.875 Z M 3.5 -6.4375 L 4.6875 -6.4375 C 6.914062 -6.4375 8.03125 -7.316406 8.03125 -9.078125 C 8.03125 -9.367188 7.957031 -9.703125 7.8125 -10.078125 C 7.519531 -10.859375 6.910156 -11.375 5.984375 -11.625 C 5.140625 -11.625 4.3125 -11.519531 3.5 -11.3125 Z M 3.5 -6.4375 "/></g></g></g><g fill="#282929" fill-opacity="1"><g transform="translate(183.04715, 215.664288)"><g/></g></g><g fill="#282929" fill-opacity="1"><g transform="translate(187.693756, 215.664288)"><g><path d="M 3.390625 -12.3125 L 3.390625 0 L 1.671875 0 L 1.671875 -12.3125 Z M 3.390625 -12.3125 "/></g></g></g><g fill="#282929" fill-opacity="1"><g transform="translate(192.749272, 215.664288)"><g/></g></g><g fill="#282929" fill-opacity="1"><g transform="translate(197.395878, 215.664288)"><g><path d="M 5.875 0 L 4.078125 0 L 4.078125 -11.421875 C 3.648438 -11.515625 3.226562 -11.5625 2.8125 -11.5625 L 0.296875 -10.984375 L 0.1875 -12.3125 L 9.765625 -12.3125 L 9.671875 -10.984375 L 7.140625 -11.5625 C 6.722656 -11.5625 6.300781 -11.515625 5.875 -11.421875 Z M 5.875 0 "/></g></g></g><g fill="#282929" fill-opacity="1"><g transform="translate(207.339632, 215.664288)"><g/></g></g><g fill="#282929" fill-opacity="1"><g transform="translate(211.986238, 215.664288)"><g><path d="M 3.390625 -12.3125 L 3.390625 0 L 1.671875 0 L 1.671875 -12.3125 Z M 3.390625 -12.3125 "/></g></g></g><g fill="#282929" fill-opacity="1"><g transform="translate(217.041754, 215.664288)"><g/></g></g><g fill="#282929" fill-opacity="1"><g transform="translate(221.68836, 215.664288)"><g><path d="M 7.265625 -12.53125 C 8.878906 -12.53125 10.210938 -12 11.265625 -10.9375 C 12.316406 -9.882812 12.84375 -8.414062 12.84375 -6.53125 C 12.84375 -5.3125 12.628906 -4.242188 12.203125 -3.328125 C 11.785156 -2.421875 11.238281 -1.722656 10.5625 -1.234375 C 9.238281 -0.265625 7.773438 0.21875 6.171875 0.21875 C 4.578125 0.21875 3.253906 -0.316406 2.203125 -1.390625 C 1.148438 -2.460938 0.625 -3.9375 0.625 -5.8125 C 0.625 -6.789062 0.765625 -7.675781 1.046875 -8.46875 C 1.328125 -9.257812 1.691406 -9.898438 2.140625 -10.390625 C 2.597656 -10.890625 3.125 -11.304688 3.71875 -11.640625 C 4.8125 -12.234375 5.992188 -12.53125 7.265625 -12.53125 Z M 3.53125 -2.125 C 3.851562 -1.570312 4.285156 -1.144531 4.828125 -0.84375 C 5.378906 -0.539062 6.007812 -0.390625 6.71875 -0.390625 C 7.4375 -0.390625 8.070312 -0.566406 8.625 -0.921875 C 9.1875 -1.285156 9.617188 -1.757812 9.921875 -2.34375 C 10.554688 -3.507812 10.875 -4.757812 10.875 -6.09375 C 10.875 -7.75 10.546875 -9.078125 9.890625 -10.078125 C 9.160156 -11.203125 7.953125 -11.765625 6.265625 -11.765625 C 5.066406 -11.347656 4.15625 -10.625 3.53125 -9.59375 C 2.914062 -8.5625 2.609375 -7.394531 2.609375 -6.09375 C 2.609375 -4.507812 2.914062 -3.1875 3.53125 -2.125 Z M 3.53125 -2.125 "/></g></g></g><g fill="#282929" fill-opacity="1"><g transform="translate(235.163538, 215.664288)"><g/></g></g><g fill="#282929" fill-opacity="1"><g transform="translate(239.810144, 215.664288)"><g><path d="M 11.03125 0.203125 L 10.703125 0.203125 L 2.5625 -9.984375 L 2.484375 -9.984375 L 2.484375 0 L 1.671875 0 L 1.671875 -12.3125 L 3.046875 -12.3125 L 10.140625 -3.359375 L 10.203125 -3.359375 L 10.203125 -12.3125 L 11.03125 -12.3125 Z M 11.03125 0.203125 "/></g></g></g></svg>