<?xml version="1.0" encoding="UTF-8" standalone="no"?>
<svg
   width="237"
   zoomAndPan="magnify"
   viewBox="0 0 192.16231 197.02711"
   height="243"
   preserveAspectRatio="xMidYMid"
   version="1.0"
   id="svg19"
   sodipodi:docname="glyph.svg"
   inkscape:version="1.3.2 (091e20e, 2023-11-25)"
   xmlns:inkscape="http://www.inkscape.org/namespaces/inkscape"
   xmlns:sodipodi="http://sodipodi.sourceforge.net/DTD/sodipodi-0.dtd"
   xmlns="http://www.w3.org/2000/svg"
   xmlns:svg="http://www.w3.org/2000/svg">
  <sodipodi:namedview
     id="namedview19"
     pagecolor="#ffffff"
     bordercolor="#000000"
     borderopacity="0.25"
     inkscape:showpageshadow="2"
     inkscape:pageopacity="0.0"
     inkscape:pagecheckerboard="0"
     inkscape:deskcolor="#d1d1d1"
     inkscape:zoom="0.80272109"
     inkscape:cx="249.77542"
     inkscape:cy="147"
     inkscape:window-width="1728"
     inkscape:window-height="1051"
     inkscape:window-x="0"
     inkscape:window-y="38"
     inkscape:window-maximized="0"
     inkscape:current-layer="svg19" />
  <defs
     id="defs6">
    <g
       id="g1" />
    <clipPath
       id="6e9cce2944">
      <path
         d="M 0.425781,0 H 374.57422 V 220 H 0.425781 Z m 0,0"
         clip-rule="nonzero"
         id="path1" />
    </clipPath>
    <clipPath
       id="ad12ab0a9d">
      <path
         d="m 168.09375,81.214844 h 69.96875 v 69.968746 h -69.96875 z m 0,0"
         clip-rule="nonzero"
         id="path2" />
    </clipPath>
    <clipPath
       id="77838aefa8">
      <path
         d="m 203.07812,81.214844 c -19.32031,0 -34.98437,15.664062 -34.98437,34.984376 0,19.32422 15.66406,34.98437 34.98437,34.98437 19.32032,0 34.98438,-15.66015 34.98438,-34.98437 0,-19.320314 -15.66406,-34.984376 -34.98438,-34.984376 z m 0,0"
         clip-rule="nonzero"
         id="path3" />
    </clipPath>
    <clipPath
       id="b3503be26e">
      <path
         d="m 282,80 h 11 v 11 h -11 z m 0,0"
         clip-rule="nonzero"
         id="path4" />
    </clipPath>
    <clipPath
       id="38446ce7a8">
      <path
         d="m 286.16797,78.433594 7.90625,5.871094 -5.75781,7.757812 -7.90625,-5.871094 z m 0,0"
         clip-rule="nonzero"
         id="path5" />
    </clipPath>
    <clipPath
       id="74ad30696c">
      <path
         d="m 290.11328,81.363281 c -2.17969,-1.617187 -5.23437,-1.191406 -6.82422,0.949219 -1.58984,2.140625 -1.11328,5.191406 1.06641,6.808594 2.17969,1.617187 5.23437,1.195312 6.82812,-0.949219 1.58985,-2.140625 1.10938,-5.1875 -1.07031,-6.808594 z m 0,0"
         clip-rule="nonzero"
         id="path6" />
    </clipPath>
  </defs>
  <g
     clip-path="url(#6e9cce2944)"
     id="g8"
     transform="matrix(0.52533001,0,0,0.90817467,-2.6008484,-1.1868414)">
    <path
       fill="#ffffff"
       d="M 0.425781,0 H 374.57422 V 220 H 0.425781 Z m 0,0"
       fill-opacity="1"
       fill-rule="nonzero"
       id="path7" />
    <path
       fill="#ffffff"
       d="M 0.425781,0 H 374.57422 V 220 H 0.425781 Z m 0,0"
       fill-opacity="1"
       fill-rule="nonzero"
       id="path8" />
  </g>
  <g
     fill="#282929"
     fill-opacity="1"
     id="g11"
     transform="translate(-101.53807,-8.5099024)">
    <g
       transform="translate(111.10137,135.63988)"
       id="g10">
      <g
         id="g9">
        <path
           d="m 109.90625,-36.34375 c 0.76953,0.773438 1.15625,1.6875 1.15625,2.75 -0.0937,1.0625 -0.53125,1.933594 -1.3125,2.609375 -5.21094,5.023437 -10.828125,8.742187 -16.859375,11.15625 -6.03125,2.40625 -12.210937,3.757813 -18.53125,4.046875 -6.324219,0.292969 -12.601563,-0.210938 -18.828125,-1.515625 -6.230469,-1.3125 -12.140625,-3.171875 -17.734375,-5.578125 -1.449219,-0.582031 -2.898437,-0.535156 -4.34375,0.140625 -1.449219,0.679687 -2.417969,1.789063 -2.90625,3.328125 -0.867187,3.28125 -2.167969,6.371094 -3.90625,9.265625 -1.742187,3.28125 -4.203125,5.9375 -7.390625,7.96875 -3.179688,2.03125 -6.652344,3.09375 -10.421875,3.1875 -1.34375,0 -2.648437,-0.101563 -3.90625,-0.296875 L 3.46875,0.140625 C -4.726562,-4.296875 -7.234375,-16.21875 -4.046875,-35.625 c 0.867187,-5.300781 2.195313,-11.085938 3.984375,-17.359375 1.78125,-6.28125 3.851562,-12.675781 6.21875,-19.1875 C 8.519531,-78.691406 11.097656,-84.96875 13.890625,-91 c 2.800781,-6.03125 5.695313,-11.48438 8.6875,-16.35938 3,-4.875 5.945313,-8.83203 8.84375,-11.875 2.894531,-3.03906 5.644531,-4.7539 8.25,-5.14062 2.03125,-0.58203 3.984375,-0.4375 5.859375,0.4375 1.882812,0.86719 3.3125,2.21484 4.28125,4.04687 1.0625,2.41797 1.226562,5.65235 0.5,9.70313 -0.71875,4.05469 -2.121094,8.66406 -4.203125,13.828125 -2.074219,5.167969 -4.585937,10.554687 -7.53125,16.15625 -2.9375,5.59375 -6.101563,11.167969 -9.484375,16.71875 -3.375,5.542969 -6.730469,10.730469 -10.0625,15.5625 -3.324219,4.824219 -6.386719,8.996094 -9.1875,12.515625 -2.804688,3.523438 -5.121094,6.105469 -6.953125,7.75 -0.09375,0.09375 -0.1875,0.195312 -0.28125,0.296875 C 2.117188,-23.117188 2.164062,-18.875 2.75,-14.625 c 0.476562,3.1875 2.164062,5.359375 5.0625,6.515625 3,1.15625 5.753906,0.773437 8.265625,-1.15625 1.632813,-1.351563 3.03125,-2.992187 4.1875,-4.921875 1.9375,-3.28125 3.191406,-6.804688 3.765625,-10.578125 0.382812,-3.175781 -0.726562,-5.585937 -3.328125,-7.234375 -1.449219,-0.96875 -2.796875,-1.929688 -4.046875,-2.890625 -1.15625,-0.875 -1.640625,-2.082031 -1.453125,-3.625 0.195313,-1.445313 1.019531,-2.410156 2.46875,-2.890625 1.925781,-0.875 3.925781,-1.066406 6,-0.578125 2.070313,0.480469 3.785156,1.539063 5.140625,3.171875 0.96875,1.261719 1.691406,2.664062 2.171875,4.203125 5.21875,2.992187 10.960937,5.5 17.234375,7.53125 6.269531,2.03125 12.710938,3.265625 19.328125,3.703125 6.613281,0.429688 13.101563,-0.347656 19.46875,-2.328125 6.375,-1.976563 12.21875,-5.570313 17.531255,-10.78125 0.76953,-0.675781 1.6875,-1.015625 2.75,-1.015625 1.0625,0 1.92968,0.386719 2.60937,1.15625 z m -69.078125,-80.5 c -1.542969,0.1875 -3.449219,1.65625 -5.71875,4.40625 -2.273437,2.75 -4.734375,6.46875 -7.390625,11.15625 -2.648438,4.679688 -5.324219,9.984375 -8.03125,15.921875 -2.699219,5.9375 -5.257812,12.242187 -7.671875,18.90625 -2.417969,6.65625 -4.445313,13.3125 -6.078125,19.96875 -0.199219,0.679687 0.039062,1.164063 0.71875,1.453125 0.582031,0.292969 1.066406,0.148438 1.453125,-0.4375 7.039063,-9.75 13.507813,-19.835938 19.40625,-30.265625 4.914063,-8.78125 8.554687,-16.015625 10.921875,-21.703125 2.363281,-5.69531 3.8125,-10.09375 4.34375,-13.1875 0.53125,-3.09375 0.554688,-5.07031 0.07813,-5.9375 0,-0.0937 -0.07422,-0.1875 -0.21875,-0.28125 C 42.492188,-116.94531 42.226562,-117 41.84375,-117 c -0.386719,0 -0.726562,0.0547 -1.015625,0.15625 z m 0,0"
           id="path9" />
      </g>
    </g>
  </g>
  <g
     clip-path="url(#ad12ab0a9d)"
     id="g13"
     transform="translate(-101.53807,-8.5099024)">
    <g
       clip-path="url(#77838aefa8)"
       id="g12">
      <path
         fill="#ffffff"
         d="m 168.09375,81.214844 h 69.96875 v 69.968746 h -69.96875 z m 0,0"
         fill-opacity="1"
         fill-rule="nonzero"
         id="path11" />
    </g>
  </g>
  <g
     fill="#282929"
     fill-opacity="1"
     id="g16"
     transform="translate(-101.53807,-8.5099024)">
    <g
       transform="translate(172.11863,135.63988)"
       id="g15">
      <g
         id="g14">
        <path
           d="m 100.78125,-38.078125 c 0.76953,0.679687 1.17578,1.546875 1.21875,2.609375 0.0508,1.0625 -0.30859,1.929688 -1.07812,2.59375 -4.343755,4.636719 -9.437505,7.945312 -15.281255,9.921875 -5.835937,1.980469 -11.792969,2.632813 -17.875,1.953125 -6.085937,-0.675781 -11.78125,-2.796875 -17.09375,-6.359375 -1.730469,-1.164063 -3.371094,-1.023437 -4.921875,0.421875 -5.6875,5.605469 -10.996094,11.496094 -15.921875,17.671875 -0.480469,0.585937 -0.773437,1.210937 -0.875,1.875 -0.960937,5.898437 -2.1875,11.976563 -3.6875,18.25 -1.5,6.269531 -3.167969,12.375 -5,18.3125 -1.835937,5.9375 -3.765625,11.4375 -5.796875,16.5 -2.023438,5.070313 -4.070312,9.34375 -6.140625,12.8125 C 6.253906,61.960938 4.25,64.332031 2.3125,65.59375 c -1.34375,0.96875 -2.789062,1.453125 -4.34375,1.453125 -2.019531,0 -3.707031,-0.726563 -5.0625,-2.171875 -3.1875,-3.386719 -4.585938,-7.398438 -4.203125,-12.03125 0.09375,-4.054688 1.0625,-8.636719 2.90625,-13.75 C -6.554688,33.976562 -4.144531,28.597656 -1.15625,22.953125 1.832031,17.304688 5.257812,11.609375 9.125,5.859375 12.988281,0.117188 17.039062,-5.40625 21.28125,-10.71875 c 0.488281,-0.675781 0.78125,-1.398438 0.875,-2.171875 0.675781,-4.25 1.109375,-8.109375 1.296875,-11.578125 -1.449219,2.898438 -3.136719,5.773438 -5.0625,8.625 -1.929687,2.84375 -4.007813,5.304688 -6.234375,7.375 -2.21875,2.074219 -4.53125,3.351562 -6.9375,3.828125 -4.25,0.78125 -7.726562,-0.519531 -10.4375,-3.90625 -1.925781,-2.125 -2.71875,-5.039063 -2.375,-8.75 0.335938,-3.71875 1.125,-7.171875 2.375,-10.359375 2.710938,-7.238281 7.148438,-13.222656 13.328125,-17.953125 6.175781,-4.726563 13.125,-7.429687 20.84375,-8.109375 1.0625,-0.09375 2.003906,0.199219 2.828125,0.875 0.820312,0.667969 1.234375,1.53125 1.234375,2.59375 0.09375,1.0625 -0.199219,2.007812 -0.875,2.828125 -0.679687,0.824219 -1.546875,1.234375 -2.609375,1.234375 -6.273438,0.679688 -11.890625,2.921875 -16.859375,6.734375 -4.96875,3.8125 -8.570313,8.617187 -10.796875,14.40625 -1.9257812,3.667969 -2.40625,7.480469 -1.4375,11.4375 0.863281,0.867187 1.5625,1.351563 2.09375,1.453125 0.53125,0.09375 0.941406,0.09375 1.234375,0 1.445313,-0.289062 3.0625,-1.398438 4.84375,-3.328125 1.789063,-1.9375 3.550781,-4.375 5.28125,-7.3125 1.738281,-2.945313 3.359375,-6.035156 4.859375,-9.265625 1.5,-3.238281 2.78125,-6.257812 3.84375,-9.0625 0.570312,-1.632812 1.726562,-2.453125 3.46875,-2.453125 1.738281,0 2.945312,0.773437 3.625,2.3125 0.957031,2.992187 1.4375,6.078125 1.4375,9.265625 0.101562,1.0625 0.296875,2.199219 0.578125,3.40625 0.289063,1.210938 0.921875,1.859375 1.890625,1.953125 0.96875,0.09375 2.367188,-0.867187 4.203125,-2.890625 0.769531,-0.96875 1.585937,-1.863281 2.453125,-2.6875 0.875,-0.820312 1.742188,-1.617188 2.609375,-2.390625 1.351563,-1.25 2.96875,-1.921875 4.84375,-2.015625 1.882813,-0.101562 3.597656,0.421875 5.140625,1.578125 4.25,3.386719 8.957031,5.539063 14.125,6.453125 5.164062,0.917969 10.257812,0.578125 15.28125,-1.015625 5.019531,-1.59375 9.410156,-4.367187 13.171875,-8.328125 0.675781,-0.769531 1.546875,-1.175781 2.609375,-1.21875 1.0625,-0.05078 1.97656,0.308594 2.75,1.078125 z M 4.34375,50.25 C 5.5,48.03125 6.800781,45.109375 8.25,41.484375 c 1.445312,-3.625 2.921875,-7.492187 4.421875,-11.59375 1.5,-4.09375 2.800781,-7.953125 3.90625,-11.578125 1.113281,-3.617188 1.910156,-6.632812 2.390625,-9.046875 0.476562,-2.417969 0.476562,-3.71875 0,-3.90625 -0.480469,-0.199219 -1.351562,0.570313 -2.609375,2.3125 -1.25,1.738281 -2.726563,4.078125 -4.421875,7.015625 -1.6875,2.945312 -3.429688,6.226562 -5.21875,9.84375 -1.78125,3.625 -3.445312,7.269531 -4.984375,10.9375 -1.542969,3.675781 -2.789063,7.054688 -3.75,10.140625 C -2.984375,48.703125 -3.519531,51.164062 -3.625,53 c 0,1.445312 0.074219,2.796875 0.21875,4.046875 0.148438,1.257813 0.65625,2.03125 1.53125,2.3125 0.867188,0.195313 1.703125,-0.429687 2.515625,-1.875 C 1.460938,56.035156 2.695312,53.625 4.34375,50.25 Z m 0,0"
           id="path13" />
      </g>
    </g>
  </g>
  <g
     clip-path="url(#b3503be26e)"
     id="g19"
     transform="translate(-101.53807,-8.5099024)">
    <g
       clip-path="url(#38446ce7a8)"
       id="g18">
      <g
         clip-path="url(#74ad30696c)"
         id="g17">
        <path
           fill="#00bf63"
           d="m 286.16797,78.433594 7.90625,5.871094 -5.75781,7.757812 -7.90625,-5.871094 z m 0,0"
           fill-opacity="1"
           fill-rule="nonzero"
           id="path16" />
      </g>
    </g>
  </g>
</svg>
